<svg width="447" height="61" viewBox="0 0 447 61" fill="none" xmlns="http://www.w3.org/2000/svg">
<path d="M49.0312 27.0769C49.1048 29.4167 49.1084 32.1133 49.1084 35.24V36.1404C49.1084 47.5025 49.1087 53.1838 45.5791 56.7136C42.0493 60.2434 36.368 60.2439 25.0059 60.2439H24.5059L35.4053 40.7009H28.4326L5.0791 56.1433L13.6934 40.7009H28.4326L49.0312 27.0769ZM6.7207 40.7009L0.101562 45.0779C0.0479177 43.745 0.0235646 42.2911 0.0117188 40.7009H6.7207ZM25.0059 11.1365C36.368 11.1365 42.0493 11.1369 45.5791 14.6667C47.5342 16.6221 48.4049 19.2375 48.7939 23.113L35.4053 24.5896L13.6934 40.7009H6.7207L34.5615 22.2888L13.6934 24.5896L0 34.7498C0.000729189 23.7133 0.0515693 18.1455 3.53027 14.6667C7.06011 11.1369 12.7411 11.1365 24.1035 11.1365H25.0059Z" fill="black"/>
<path d="M78.3097 60.2438C73.3024 60.2438 68.9807 59.2568 65.3447 57.283C61.7294 55.2884 58.9452 52.4523 56.9922 48.7747C55.0599 45.0763 54.0938 40.6819 54.0938 35.5915C54.0938 30.6465 55.0703 26.3248 57.0233 22.6265C58.9764 18.9073 61.7294 16.0193 65.2823 13.9623C68.8352 11.8846 73.0219 10.8457 77.8422 10.8457C81.2497 10.8457 84.3663 11.3756 87.192 12.4352C90.0177 13.4948 92.459 15.0635 94.516 17.1413C96.5729 19.219 98.1728 21.785 99.3155 24.8393C100.458 27.8727 101.03 31.3529 101.03 35.2798V39.0821H59.4231V30.231H86.8491C86.8284 28.6103 86.444 27.1663 85.696 25.8989C84.948 24.6315 83.9196 23.6446 82.6106 22.9381C81.3224 22.2109 79.8368 21.8473 78.1539 21.8473C76.4501 21.8473 74.923 22.2317 73.5725 23.0005C72.2219 23.7484 71.1519 24.7769 70.3624 26.0859C69.5728 27.3741 69.1573 28.8389 69.1157 30.4803V39.4872C69.1157 41.4403 69.5001 43.1544 70.2689 44.6296C71.0376 46.084 72.1284 47.2164 73.5413 48.0267C74.9542 48.837 76.6371 49.2422 78.5902 49.2422C79.9407 49.2422 81.1666 49.0552 82.2678 48.6812C83.369 48.3072 84.3143 47.7566 85.1039 47.0294C85.8934 46.3022 86.4855 45.4088 86.8803 44.3491L100.874 44.7543C100.292 47.8917 99.0143 50.6239 97.0404 52.9509C95.0873 55.2572 92.5214 57.0544 89.3424 58.3426C86.1635 59.61 82.4859 60.2438 78.3097 60.2438Z" fill="black"/>
<path d="M115.277 32.0386V59.3399H100.037V11.4691H114.529V20.2579H115.059C116.119 17.3283 117.926 15.0324 120.482 13.3702C123.037 11.6872 126.081 10.8457 129.613 10.8457C132.979 10.8457 135.899 11.6041 138.371 13.1209C140.864 14.6168 142.797 16.7153 144.168 19.4164C145.56 22.0966 146.246 25.234 146.225 28.8285V59.3399H130.985V31.8204C131.006 29.1609 130.33 27.0832 128.959 25.5872C127.608 24.0913 125.728 23.3433 123.318 23.3433C121.718 23.3433 120.305 23.6965 119.079 24.4029C117.874 25.0886 116.939 26.0755 116.274 27.3637C115.63 28.6519 115.298 30.2102 115.277 32.0386Z" fill="black"/>
<path d="M173.856 10.8457V21.9407H143.352L129.613 10.8457H173.856ZM150.032 0H165.272V44.2868C165.272 45.2218 165.417 45.9801 165.708 46.5619C166.02 47.1229 166.467 47.5281 167.048 47.7774C167.63 48.0059 168.326 48.1202 169.137 48.1202C169.718 48.1202 170.331 48.0683 170.975 47.9644C171.64 47.8397 172.139 47.7358 172.471 47.6527L174.778 58.6543C174.05 58.8621 173.022 59.1218 171.692 59.4334C170.383 59.7451 168.815 59.9425 166.986 60.0256C163.412 60.1918 160.348 59.7763 157.792 58.779C155.257 57.7609 153.315 56.1818 151.964 54.0417C150.634 51.9017 149.99 49.211 150.032 45.9698V0Z" fill="black"/>
<path d="M194.767 60.2438C189.76 60.2438 185.438 59.2568 181.802 57.283C178.187 55.2884 175.403 52.4523 173.45 48.7747C171.518 45.0763 170.552 40.6819 170.552 35.5915C170.552 30.6465 171.528 26.3248 173.481 22.6265C175.434 18.9073 178.187 16.0193 181.74 13.9623C185.293 11.8846 189.48 10.8457 194.3 10.8457C197.707 10.8457 200.824 11.3756 203.65 12.4352C206.475 13.4948 208.917 15.0635 210.974 17.1413C213.031 19.219 214.631 21.785 215.773 24.8393C216.916 27.8727 217.487 31.3529 217.487 35.2798V39.0821H175.881V30.231H203.307C203.286 28.6103 202.902 27.1663 202.154 25.8989C201.406 24.6315 200.377 23.6446 199.068 22.9381C197.78 22.2109 196.295 21.8473 194.612 21.8473C192.908 21.8473 191.381 22.2317 190.03 23.0005C188.68 23.7484 187.61 24.7769 186.82 26.0859C186.031 27.3741 185.615 28.8389 185.573 30.4803V39.4872C185.573 41.4403 185.958 43.1544 186.727 44.6296C187.495 46.084 188.586 47.2164 189.999 48.0267C191.412 48.837 193.095 49.2422 195.048 49.2422C196.398 49.2422 197.624 49.0552 198.726 48.6812C199.827 48.3072 200.772 47.7566 201.562 47.0294C202.351 46.3022 202.943 45.4088 203.338 44.3491L217.332 44.7543C216.75 47.8917 215.472 50.6239 213.498 52.9509C211.545 55.2572 208.979 57.0544 205.8 58.3426C202.621 59.61 198.944 60.2438 194.767 60.2438Z" fill="black"/>
<path d="M216.495 59.3399V11.4691H231.299V20.1955H231.797C232.67 17.0374 234.093 14.6895 236.067 13.152C238.041 11.5937 240.337 10.8146 242.955 10.8146C243.661 10.8146 244.388 10.8665 245.136 10.9704C245.884 11.0535 246.58 11.1886 247.224 11.3756V24.6211C246.497 24.3718 245.541 24.1744 244.357 24.0289C243.194 23.8835 242.155 23.8108 241.241 23.8108C239.433 23.8108 237.802 24.2159 236.347 25.0262C234.914 25.8158 233.781 26.9274 232.95 28.361C232.14 29.7739 231.735 31.436 231.735 33.3476V59.3399H216.495Z" fill="black"/>
<path d="M259.981 8.24294e-05L259.898 59.3399H244.658L244.74 8.24294e-05H259.981Z" fill="black"/>
<path d="M274.317 60.1503C271.263 60.1503 268.551 59.6412 266.183 58.6231C263.835 57.5843 261.975 56.026 260.604 53.9482C259.253 51.8497 258.578 49.2214 258.578 46.0633C258.578 43.4038 259.046 41.1598 259.981 39.3314C260.916 37.503 262.204 36.0174 263.845 34.8747C265.487 33.7319 267.377 32.8697 269.517 32.2879C271.657 31.6854 273.943 31.2802 276.374 31.0724C279.096 30.8231 281.288 30.5634 282.95 30.2933C284.612 30.0024 285.817 29.5973 286.565 29.0778C287.334 28.5376 287.718 27.7792 287.718 26.8027V26.6469C287.718 25.047 287.168 23.8108 286.066 22.9381C284.965 22.0655 283.48 21.6292 281.61 21.6292C279.594 21.6292 277.974 22.0655 276.748 22.9381C275.522 23.8108 274.743 25.0159 274.41 26.5534L260.355 26.0547C260.77 23.1459 261.84 20.5487 263.565 18.2632C265.31 15.957 267.699 14.1493 270.733 12.8404C273.787 11.5106 277.454 10.8457 281.734 10.8457C284.789 10.8457 287.604 11.2093 290.18 11.9366C292.757 12.643 295.001 13.6818 296.912 15.0531C298.824 16.4037 300.299 18.0659 301.338 20.0397C303.544 24.1488 303.469 29.0952 304.541 33.634L310.547 59.0594H288.591V52.6704H288.217C287.365 54.2911 286.274 55.6624 284.945 56.7843C283.636 57.9063 282.088 58.7478 280.301 59.3088C278.535 59.8698 276.54 60.1503 274.317 60.1503ZM279.023 50.1772C280.664 50.1772 282.14 49.8447 283.449 49.1798C284.778 48.515 285.838 47.6008 286.627 46.4372C287.417 45.2529 287.812 43.8816 287.812 42.3233V37.7731C287.375 38.0017 286.846 38.2094 286.222 38.3964C285.62 38.5834 284.955 38.76 284.228 38.9263C283.5 39.0925 282.752 39.2379 281.984 39.3626C281.215 39.4872 280.477 39.6015 279.771 39.7054C278.337 39.934 277.111 40.2872 276.093 40.765C275.096 41.2429 274.327 41.8662 273.787 42.635C273.268 43.383 273.008 44.2764 273.008 45.3153C273.008 46.8943 273.569 48.0994 274.691 48.9305C275.834 49.7616 277.278 50.1772 279.023 50.1772Z" fill="black"/>
<path d="M325.787 31.7581V45.4088V59.0594H310.547V11.1886H325.039V19.9774H325.569C326.629 17.0478 328.437 14.7519 330.992 13.0897C333.548 11.4067 336.592 10.5652 340.124 10.5652C343.49 10.5652 346.409 11.3236 348.881 12.8404C351.375 14.3363 353.307 16.4348 354.678 19.1359C356.07 21.8161 356.756 24.9535 356.735 28.548V59.0594H341.495V31.5399C341.516 28.8804 340.841 26.8027 339.469 25.3067C338.119 23.8108 336.238 23.0628 333.828 23.0628C332.228 23.0628 330.816 23.416 329.59 24.1224C328.385 24.8081 327.45 25.795 326.785 27.0832C326.141 28.3714 325.808 29.9297 325.787 31.7581Z" fill="black"/>
<path d="M379.74 59.9633C374.691 59.9633 370.359 58.9244 366.744 56.8467C363.15 54.7689 360.386 51.8809 358.454 48.1825C356.522 44.4634 355.556 40.1625 355.556 35.2798C355.556 30.3764 356.522 26.0755 358.454 22.3771C360.407 18.658 363.181 15.7596 366.775 13.6818C370.391 11.6041 374.702 10.5652 379.709 10.5652C384.135 10.5652 387.989 11.3652 391.272 12.965C394.575 14.5649 397.152 16.8296 399.001 19.7592C400.871 22.668 401.858 26.0859 401.962 30.0128H387.719C387.428 27.5611 386.597 25.6392 385.226 24.2471C383.875 22.855 382.109 22.159 379.927 22.159C378.161 22.159 376.613 22.6576 375.284 23.6549C373.954 24.6315 372.915 26.0859 372.167 28.0182C371.44 29.9297 371.076 32.2983 371.076 35.124C371.076 37.9497 371.44 40.3391 372.167 42.2922C372.915 44.2245 373.954 45.6893 375.284 46.6866C376.613 47.6631 378.161 48.1514 379.927 48.1514C381.34 48.1514 382.587 47.8501 383.667 47.2476C384.769 46.645 385.672 45.762 386.379 44.5985C387.085 43.4141 387.532 41.9805 387.719 40.2975H401.962C401.816 44.2452 400.829 47.6943 399.001 50.6446C397.193 53.595 394.648 55.8909 391.365 57.5323C388.103 59.1529 384.228 59.9633 379.74 59.9633Z" fill="black"/>
<path d="M423.362 59.9633C418.354 59.9633 414.033 58.9763 410.397 57.0025C406.782 55.0079 403.997 52.1718 402.044 48.4942C400.112 44.7958 399.146 40.4014 399.146 35.311C399.146 30.366 400.122 26.0443 402.075 22.346C404.029 18.6268 406.782 15.7388 410.334 13.6818C413.887 11.6041 418.074 10.5652 422.894 10.5652C426.302 10.5652 429.418 11.0951 432.244 12.1547C435.07 13.2144 437.511 14.783 439.568 16.8608C441.625 18.9385 443.225 21.5045 444.368 24.5588C445.51 27.5922 446.082 31.0724 446.082 34.9993V38.8016H404.475V29.9505H431.901C431.88 28.3298 431.496 26.8858 430.748 25.6184C430 24.351 428.972 23.3641 427.663 22.6576C426.374 21.9304 424.889 21.5668 423.206 21.5668C421.502 21.5668 419.975 21.9512 418.625 22.72C417.274 23.4679 416.204 24.4964 415.414 25.8054C414.625 27.0936 414.209 28.5584 414.168 30.1998V39.2067C414.168 41.1598 414.552 42.8739 415.321 44.3491C416.09 45.8035 417.181 46.9359 418.593 47.7462C420.006 48.5565 421.689 48.9617 423.642 48.9617C424.993 48.9617 426.219 48.7747 427.32 48.4007C428.421 48.0267 429.366 47.4761 430.156 46.7489C430.945 46.0217 431.538 45.1283 431.932 44.0686L445.926 44.4738C445.344 47.6112 444.066 50.3434 442.092 52.6704C440.139 54.9767 437.573 56.7739 434.395 58.0621C431.216 59.3295 427.538 59.9633 423.362 59.9633Z" fill="black"/>
</svg>
